<svg width="32" height="31" viewBox="0 0 32 31" fill="none" xmlns="http://www.w3.org/2000/svg">
<g clip-path="url(#clip0)">
<path d="M16.1928 18.3014L10.1489 14.053L7.8938 30.3232L22.2367 22.5498L16.1928 18.3014Z" fill="#528A87"/>
<path d="M9.59994 17.9455L8.98771 22.4199C9.14961 22.6997 9.32893 22.9731 9.51469 23.2642C10.4893 24.6825 11.8898 26.1842 13.1889 27.4637L15.6143 26.1553C14.8866 25.4644 14.0661 24.628 13.1417 23.6701C11.3407 21.7765 10.2494 19.6627 9.59994 17.9455Z" fill="#60A1A1"/>
<path d="M17.606 25.0659L20.0314 23.7575C19.0328 22.8667 17.6381 21.5424 15.8739 19.6953C14.8521 18.6334 14.0568 17.4885 13.4331 16.3804L10.1489 14.053L10.0527 14.7069C10.4905 16.0627 11.1793 17.7255 12.2533 19.307C13.6601 21.365 15.9772 23.5881 17.606 25.0659Z" fill="#60A1A1"/>
<path d="M8.86348 29.7879L11.254 28.4924C10.9747 28.2157 10.6889 27.9214 10.3967 27.6096C9.69098 26.8707 9.0898 26.0936 8.58861 25.3196L8.08877 28.9148C8.33969 29.2218 8.60159 29.5049 8.86348 29.7879Z" fill="#60A1A1"/>
<path d="M22.2367 22.5498C21.552 23.5391 18.2845 22.4427 14.9351 20.0994C11.6032 17.7497 9.44683 15.0487 10.1489 14.053C10.8335 13.0637 14.1011 14.1601 17.4505 16.5034C20.7824 18.8531 22.9213 21.5605 22.2367 22.5498Z" fill="#F8F2C6"/>
<path d="M22.2367 22.5498C21.552 23.5391 18.2845 22.4427 14.9351 20.0994C11.6032 17.7497 9.44683 15.0487 10.1489 14.053C10.8335 13.0637 14.1011 14.1601 17.4505 16.5034C20.7824 18.8531 22.9213 21.5605 22.2367 22.5498Z" fill="#B5B5B4"/>
<path d="M14.9416 20.117C17.1311 21.6685 19.2967 22.6701 20.7199 22.8865C20.8156 21.8538 19.0436 19.7701 16.451 17.9274C13.8409 16.0912 11.3011 15.147 10.3752 15.5862C11.0634 16.8702 12.7522 18.5654 14.9416 20.117Z" fill="#DBDBDB"/>
<path d="M13.0506 15.2835C13.3076 13.613 13.6468 9.95706 11.6043 9.12976C11.0921 8.91854 9.11147 8.90657 9.25068 9.93295C9.38537 11.0009 10.6357 10.9614 11.2906 10.3222C12.8579 8.82971 11.0402 6.24398 9.65646 5.43452C9.40487 5.28735 8.38161 5.62266 8.73512 5.83223C9.6873 6.38094 10.204 7.08934 10.5432 8.1222C10.6309 8.46914 10.6773 8.81127 10.6476 9.16136C10.2242 10.0548 10.3364 10.2531 10.9952 9.73221C12.4654 10.6696 12.1624 13.9931 11.937 15.3726C11.9008 15.7051 13.0125 15.5569 13.0506 15.2835Z" fill="#528A87"/>
<path d="M15.8325 15.5404C15.8288 14.3446 15.9141 13.176 16.0517 11.9883C16.1188 11.5247 16.884 6.87456 18.4508 8.6145C18.6313 9.6457 18.6668 9.47306 18.5445 8.06141C18.5762 7.23172 18.9969 6.43896 19.4086 5.72932C20.0198 4.64728 21.0431 3.77322 21.9206 2.93268C22.4162 2.45168 21.3911 2.1891 21.0439 2.53587C19.0204 4.45505 17.1421 6.50058 17.4862 9.48698C17.6286 10.7915 19.5138 10.22 19.6985 9.21448C20.0633 7.2451 17.5646 7.38319 16.5206 7.98547C14.4392 9.20762 14.705 13.7591 14.7118 15.7718C14.7162 16.2689 15.8324 16.0791 15.8325 15.5404Z" fill="#C73F80"/>
<path d="M17.54 16.9095C19.4039 16.7647 21.3356 15.9966 22.7023 14.6574C23.6869 13.6778 24.6266 11.4977 22.5685 11.2746C22.3621 11.2506 21.9466 11.3032 21.824 11.5077C21.0819 12.7176 22.6612 13.0364 23.5676 13.0831C25.2044 13.1813 26.6542 12.2306 27.9362 11.3615C28.4421 11.0164 27.3531 10.9568 27.0827 11.1357C26.9279 11.2524 26.7491 11.3578 26.5943 11.4745C25.5142 12.4092 24.2574 12.4311 22.8195 11.5817C22.5691 11.6535 22.3252 11.7429 22.0749 11.8148C23.9265 12.0137 21.7049 14.5243 21.31 14.8487C20.2737 15.6876 19.0517 16.2355 17.7272 16.342C17.2356 16.4026 16.7723 16.9715 17.54 16.9095Z" fill="#F6DC7D"/>
<path d="M21.5031 17.5314C22.0974 16.8346 22.8361 16.424 23.7149 16.3413C25.2239 16.3067 25.7548 16.7305 25.325 17.6064C25.4682 17.6736 25.6114 17.7408 25.7611 17.8256C25.9723 16.1919 28.1986 17.251 29.014 17.7501C29.272 17.9149 30.3127 17.5732 29.9289 17.3349C28.6645 16.5814 24.9795 15.4785 24.665 17.9083C24.6488 18.1337 24.9598 18.1194 25.1011 18.1275C26.5778 18.005 27.2071 16.2179 25.4149 15.8575C23.7227 15.5004 21.3826 16.1789 20.4134 17.6317C20.2734 17.8426 21.3127 17.8207 21.5031 17.5314Z" fill="white"/>
<path d="M21.5957 20.3705C23.4557 20.1075 25.3731 20.1626 26.8 21.5748C27.1032 21.8627 28.1439 21.521 27.8342 21.2155C26.0803 19.5042 23.7455 19.4426 21.47 19.7582C20.8087 19.8411 20.9344 20.4534 21.5957 20.3705Z" fill="#C73F80"/>
</g>
<defs>
<clipPath id="clip0">
<rect width="25.5494" height="22.9289" fill="white" transform="translate(0 8.7959) rotate(-20.1373)"/>
</clipPath>
</defs>
</svg>
