<svg width="270" height="1024" viewBox="0 0 270 1024" fill="none" xmlns="http://www.w3.org/2000/svg">
<path d="M26.4998 664C-18.3001 569.6 5.49985 469.333 22.9998 431C8.19968 483.4 30.8332 542.5 44 565.5C54 596.3 104.5 674 128.5 709L182.5 782.5L228 837.5C261.6 883.9 269.667 981.833 269.5 1025H228C239.2 940.6 142.667 815.833 93 764C62.2 730.8 35.8332 683.5 26.4998 664Z" fill="#002C83" fill-opacity="0.8"/>
<path d="M72.9999 248C131.5 136 102.667 39.3333 72.9999 0H165.5C169.1 6 171.667 25.1667 172.5 34C178 133 159 175.5 113.5 233.5C94.7 258.7 71.3333 304 62 323.5C34.8 370.7 21.6666 431.167 18.4999 455.5C7.50022 382 49.3332 296.833 72.9999 248Z" fill="#1B8DEC" fill-opacity="0.8"/>
</svg>
